<svg xmlns="http://www.w3.org/2000/svg">
<symbol id="phone" viewBox="0 0 24 24">
<path d="M 23.9481 18.5956 C 23.8802 18.3911 23.4483 18.0898 22.6528 17.6924 C 22.4372 17.5671 22.1301 17.3969 21.7328 17.181 C 21.335 16.965 20.974 16.7661 20.6504 16.5842 C 20.3261 16.4024 20.0222 16.2263 19.7384 16.0561 C 19.693 16.022 19.551 15.9227 19.3123 15.7576 C 19.0735 15.5929 18.872 15.4707 18.707 15.391 C 18.5422 15.3118 18.3802 15.2719 18.2211 15.2719 C 17.9939 15.2719 17.7101 15.4339 17.3693 15.7576 C 17.0285 16.0816 16.7159 16.4336 16.432 16.8147 C 16.148 17.1955 15.8468 17.5475 15.5289 17.8714 C 15.2106 18.1954 14.949 18.3572 14.7447 18.3572 C 14.6422 18.3572 14.5143 18.3286 14.361 18.2722 C 14.2078 18.2154 14.0913 18.1668 14.0113 18.1276 C 13.932 18.0875 13.7959 18.0082 13.6026 17.8885 C 13.409 17.7692 13.3013 17.7038 13.2786 17.6924 C 11.7218 16.8286 10.3867 15.8399 9.273 14.7266 C 8.15962 13.6127 7.17084 12.2777 6.30725 10.7208 C 6.29591 10.6981 6.23042 10.5901 6.11119 10.397 C 5.99179 10.2038 5.91221 10.0676 5.87245 9.98781 C 5.83268 9.90835 5.78439 9.79181 5.72767 9.63844 C 5.67095 9.48506 5.64248 9.3573 5.64248 9.25491 C 5.64248 9.05049 5.80445 8.789 6.12833 8.47079 C 6.45215 8.15276 6.80451 7.8515 7.18505 7.56762 C 7.56589 7.28374 7.91789 6.97114 8.24183 6.63036 C 8.56565 6.2894 8.72756 6.00546 8.72756 5.77824 C 8.72756 5.61925 8.6878 5.45716 8.60834 5.29244 C 8.52882 5.12737 8.40667 4.92594 8.24183 4.68719 C 8.07693 4.44856 7.97753 4.30665 7.94338 4.26098 C 7.77311 3.97709 7.59717 3.67315 7.41514 3.34927 C 7.23311 3.02545 7.03442 2.66449 6.81842 2.26682 C 6.6026 1.86932 6.43227 1.5624 6.30713 1.34651 C 5.90964 0.551227 5.60856 0.119224 5.40397 0.0512838 C 5.32438 0.0171941 5.20498 0 5.04605 0 C 4.73907 0 4.33859 0.0567167 3.84432 0.170508 C 3.34987 0.284121 2.96079 0.403286 2.67667 0.52848 C 2.10849 0.766989 1.50628 1.46013 0.869857 2.60766 C 0.290332 3.6756 0.000598907 4.73262 0.000598907 5.77794 C 0.000598907 6.08451 0.0204796 6.38278 0.060241 6.67281 C 0.100002 6.96254 0.171047 7.28929 0.273436 7.65299 C 0.375645 8.01658 0.458093 8.28667 0.520422 8.46255 C 0.58281 8.63855 0.699289 8.95384 0.869797 9.40852 C 1.04007 9.86309 1.14245 10.1414 1.17654 10.2436 C 1.57422 11.3573 2.0458 12.3515 2.59118 13.2266 C 3.4885 14.681 4.71304 16.1841 6.26409 17.7353 C 7.8152 19.2864 9.31802 20.5108 10.7726 21.4085 C 11.6475 21.9538 12.6421 22.4254 13.7556 22.8233 C 13.8579 22.8573 14.1362 22.9594 14.5906 23.1303 C 15.0451 23.3007 15.3605 23.4171 15.5365 23.4796 C 15.7126 23.5422 15.9828 23.6247 16.346 23.7271 C 16.7101 23.8295 17.0366 23.9005 17.3263 23.9406 C 17.6162 23.9798 17.9145 24.0001 18.2212 24.0001 C 19.2664 24.0001 20.3235 23.7101 21.3916 23.1307 C 22.539 22.4945 23.232 21.8922 23.4706 21.3236 C 23.5961 21.0397 23.715 20.6506 23.8286 20.1561 C 23.9426 19.6619 23.9992 19.2615 23.9992 18.9545 C 23.9995 18.795 23.9824 18.6759 23.9481 18.5956 Z"/>
</symbol>

<symbol id="beats-logo" viewBox="0 0 40 40">
<path d="M20 26C23.3 26 26 23.3 26 20C26 16.7 23.3 14 20 14C16.7 14 14 16.7 14 20C14 23.3 16.7 26 20 26ZM20 0C18 0 15.9 0.3 14 0.9V12C18.4 8.7 24.7 9.6 28 14C31.3 18.4 30.4 24.7 26 28C21.6 31.3 15.3 30.4 12 26C10.7 24.3 10 22.2 10 20V2.7C0.40002 8.2 -2.79998 20.4 2.70002 30C8.20002 39.6 20.4 42.8 30 37.3C39.6 31.8 42.8 19.6 37.3 10C33.8 3.8 27.2 0 20 0Z"/>
</symbol>

<symbol id="noise" viewBox="0 0 60 60">
<path d="m18 0c-9.925 0-18 8.748-18 19.549.03819386 2.5043778.72485482 4.9560985 1.993 7.116.5992406 1.0222536 1.11234558 2.092616 1.534 3.2.27964082.8138953.01123513 1.7155455-.668 2.244-1.18174374.9447425-1.86653676 2.3780559-1.859 3.891-.00474262 1.6625215.81717917 3.2186634 2.193 4.152.49462827.3360251.79548602.8911393.807 1.489v8.359c0 5.514 4.037 10 9 10s9-4.486 9-10c-.0151885-4.1184474 1.7757406-8.0365615 4.9-10.72 5.8568631-4.8868272 9.199657-12.1528122 9.1-19.78 0-10.752-8.075-19.5-18-19.5zm7.6 37.761c-3.5690404 3.0626345-5.6158785 7.5360725-5.6 12.239 0 4.411-3.141 8-7 8s-7-3.589-7-8v-8.359c-.01620182-1.2385055-.62394239-2.3945136-1.635-3.11-.85435865-.5579765-1.36810973-1.5105801-1.365-2.531-.00686155-.9198384.41445209-1.7905533 1.14-2.356 1.33140873-1.066671 1.83976683-2.86038 1.266-4.467-.46056114-1.2113301-1.02151176-2.3820678-1.677-3.5-1.10201369-1.874322-1.69783317-4.0029379-1.729-6.177 0-9.649 7.178-17.5 16-17.5s16 7.851 16 17.5c.0915428 7.0411079-2.9939568 13.7487636-8.4 18.261z"/><path id="Shape" d="m18 5c-5.573 0-10.325 3.952-12.17 9.476-.013.033-.022.065-.032.1-.5272418 1.6040759-.79724954 3.2814989-.8 4.97 0 1.2 0 4.87 2.293 7.163.39237889.3789722 1.01608478.3735524 1.40181858-.0121814.38573379-.3857338.39115363-1.0094397.01218142-1.4018186-.82155739-.9132539-1.3491204-2.0527063-1.514-3.27.161-.01.32-.023.487-.023 4.59-.002 8.322 4.198 8.322 9.358 0 .479-.023.929-.06 1.373-.4978832.5315763-1.0275205 1.0324943-1.586 1.5-2.9125701 2.3851948-4.52684196 6.0063691-4.354 9.767 0 .5522847.4477153 1 1 1s1-.4477153 1-1c-.1720387-3.1707753 1.1831952-6.2325036 3.646-8.237 3.5281209-2.707959 5.5239529-6.9587008 5.354-11.403 0-6.26-4.71-11.36-10.5-11.36-.66513337.0017525-1.32831115.0721251-1.979.21 1.7381919-3.68980728 5.4020384-6.09011184 9.479-6.21 6.065 0 11 5.627 11 12.544.0786047 5.4490737-2.2845859 10.6475796-6.442 14.171-.138.119-.291.247-.457.386-1.99 1.654-6.129 5.1-7.095 13.789-.0584247.5475087.3367459 1.0392368.884 1.1.0364619.0052945.0731811.0086327.11.01.5093591-.0004745.9369707-.3837316.993-.89.877-7.89 4.46-10.871 6.386-12.472.177-.148.34-.284.486-.41 4.602707-3.8990033 7.2200661-9.6524245 7.135-15.684 0-8.02-5.832-14.544-13-14.544zm-7.5 10c4.687 0 8.5 4.2 8.5 9.36.0453636 1.8921894-.3303607 3.7708112-1.1 5.5-.671-5.56-4.993-9.86-10.22-9.86-.231 0-.453.017-.676.033 0-.192 0-.359 0-.489.00036187-1.3373184.19162438-2.6677377.568-3.951.92726505-.3890787 1.92241707-.5906241 2.928-.593z"/><path id="Shape" d="m50 23c.0767062-3.1517392 1.4133481-6.1412643 3.711-8.3.2790877-.2478662.3968971-.6305358.3055372-.9924487-.0913598-.361913-.3766793-.6428183-.7399727-.7285245-.3632933-.0857062-.7440796.038055-.9875645.3209732-2.6707148 2.5286775-4.215708 6.0228332-4.289 9.7.073292 3.6771668 1.6182852 7.1713225 4.289 9.7.2434849.2829182.6242712.4066794.9875645.3209732.3632934-.0857062.6486129-.3666115.7399727-.7285245.0913599-.3619129-.0264495-.7445825-.3055372-.9924487-2.2976519-2.1587357-3.6342938-5.1482608-3.711-8.3z"/><path id="Shape" d="m56.665 17.253c-.1981032-.1763985-.4581747-.2668617-.7229856-.2514832-.2648108.0153786-.5126623.1353387-.6890144.3334832-3.0038043 3.1793913-3.0038043 8.1506087 0 11.33.2375816.2668774.5994935.386734.9494069.314421s.6346682-.3258096.747-.665.0351747-.7125436-.2024069-.979421c-2.3292957-2.4206558-2.3292957-6.2493442 0-8.67.1763985-.1981032.2668617-.4581747.2514832-.7229856-.0153786-.2648108-.1353387-.5126623-.3334832-.6890144z"/><path id="Shape" d="m59.743 20.331c-.3695287-.4102424-1.0016135-.4433686-1.412-.074-.8404607.6621414-1.3309783 1.6730443-1.3309783 2.743s.4905176 2.0808586 1.3309783 2.743c.2641632.2474727.6414391.3328718.9864254.2232844.3449863-.1095873.6038197-.397051.6767457-.7516024.072926-.3545515-.0514414-.7208339-.3251711-.957682-.3877047-.3080639-.6300126-.7633419-.669-1.257.0389874-.4936581.2812953-.9489361.669-1.257.4102424-.3695287.4433686-1.0016135.074-1.412z"/><path id="Shape" d="m45 23c0-4.4 1.971-8.652 5.7-12.284.2558022-.2500859.3587539-.6176437.2700742-.9642178-.0886796-.34657414-.3555181-.61951181-.7-.71600002-.3444818-.09648821-.714272-.00186811-.9700742.24821782-4.12 4.016-6.3 8.759-6.3 13.716s2.18 9.7 6.3 13.716c.3954359.3865993 1.0294007.3794359 1.416-.016s.3794359-1.0294007-.016-1.416c-3.729-3.632-5.7-7.884-5.7-12.284z"/><path id="Shape" d="m40 23c0-5.494 2.322-10.786 6.717-15.3.2500859-.25615943.3445154-.62627975.2477178-.97094021-.0967976-.34466047-.3701165-.61149896-.717-.7s-.7146319.01478078-.9647178.27094021c-4.764 4.9-7.283 10.675-7.283 16.7s2.519 11.8 7.283 16.7c.3865993.3959882 1.0210118.4035993 1.417.017s.4035993-1.0210118.017-1.417c-4.395-4.514-6.717-9.806-6.717-15.3z"/>
</symbol>

<symbol id="charging" viewBox="0 0 409.6 409.6">
<g>
	<g>
		<path d="M275.483,34.133H134.117c-15.607,0-28.303,12.696-28.303,28.303v318.86c0,15.607,12.696,28.303,28.303,28.303h141.367    c15.607,0,28.303-12.696,28.303-28.303V62.437C303.787,46.829,291.091,34.133,275.483,34.133z M290.133,381.297    c0,8.076-6.574,14.65-14.65,14.65H134.117c-8.076,0-14.65-6.574-14.65-14.65V62.437c0-8.076,6.574-14.65,14.65-14.65h141.367    c8.076,0,14.65,6.574,14.65,14.65V381.297z"/>
	</g>
</g>
<g>
	<g>
		<path d="M242.347,0h-75.093c-3.77,0-6.827,3.057-6.827,6.827V40.96c0,3.77,3.057,6.827,6.827,6.827h75.093    c3.77,0,6.827-3.057,6.827-6.827V6.827C249.173,3.057,246.117,0,242.347,0z M235.52,34.133h-61.44v-20.48h61.44V34.133z"/>
	</g>
</g>
<g>
	<g>
		<path d="M254.93,187.479c-1.253-1.971-3.424-3.161-5.757-3.161h-40.96v-61.44c0-3.2-2.224-5.97-5.347-6.663    c-3.152-0.69-6.313,0.877-7.666,3.777l-47.787,102.4c-0.986,2.113-0.823,4.588,0.43,6.554c1.253,1.971,3.424,3.161,5.757,3.161    h40.96v61.44c0,3.2,2.224,5.97,5.347,6.663c0.497,0.111,0.993,0.164,1.483,0.164c2.606,0,5.043-1.5,6.183-3.941l47.787-102.4    C256.346,191.92,256.183,189.445,254.93,187.479z M194.56,218.453h-30.24l30.24-64.804V218.453z M208.213,262.777v-64.804h30.24    L208.213,262.777z"/>
	</g>
</g>
</symbol>

<symbol id="plug" viewBox="0 0 512 512">
<path d="M391.533,109.933h-25.6V24.6c0-14.507-11.093-25.6-25.6-25.6c-14.507,0-25.6,11.093-25.6,25.6v85.333H195.267V24.6     c0-14.507-11.093-25.6-25.6-25.6c-14.507,0-25.6,11.093-25.6,25.6v85.333h-25.6c-5.12,0-8.533,3.413-8.533,8.533v64.853     c0,42.667,16.213,83.627,45.227,115.2c25.6,29.013,40.107,66.56,40.107,104.96v22.187c0,23.893,18.773,42.667,42.667,42.667     h8.533v34.133c0,5.12,3.413,8.533,8.533,8.533c5.12,0,8.533-3.413,8.533-8.533v-34.133h8.533     c23.893,0,42.667-18.773,42.667-42.667v-21.333c0-39.253,13.653-75.947,40.107-104.96     c29.013-31.573,45.227-73.387,45.227-116.053v-64.853C400.067,113.347,396.653,109.933,391.533,109.933z M331.8,24.6     c0-5.12,3.413-8.533,8.533-8.533s8.533,3.413,8.533,8.533v85.333H331.8V24.6z M161.133,24.6c0-4.267,3.413-8.533,8.533-8.533     c5.12,0,8.533,3.413,8.533,8.533v85.333h-17.067V24.6z M383,182.467c0,39.253-13.653,75.947-40.107,104.96     C313.88,319,297.667,360.813,297.667,403.48v22.187c0,14.507-11.093,25.6-25.6,25.6h-34.133c-14.507,0-25.6-11.093-25.6-25.6     v-21.333c0-42.667-16.213-84.48-45.227-116.053C141.507,259.267,127,221.72,127,183.32V127h25.6h34.133h136.533H357.4H383     V182.467z"/>
			<path d="M289.133,220.867h-47.787l45.227-45.227c3.413-3.413,3.413-8.533,0-11.947s-8.533-3.413-11.947,0l-59.733,59.733     c-2.56,2.56-3.413,5.973-1.707,9.387c0.853,3.413,4.267,5.12,7.68,5.12h47.787l-45.227,45.227c-3.413,3.413-3.413,8.533,0,11.947     c1.707,1.707,3.413,2.56,5.973,2.56c2.56,0,4.267-0.853,5.973-2.56l59.733-59.733c2.56-2.56,3.413-5.973,1.707-9.387     C295.96,222.573,292.547,220.867,289.133,220.867z"/>
</symbol>

<symbol id="battery" viewBox="0 0 60 60">
<path d="M42.536,4H36V0H24v4h-6.536C15.554,4,14,5.554,14,7.464v49.072C14,58.446,15.554,60,17.464,60h25.072  C44.446,60,46,58.446,46,56.536V7.464C46,5.554,44.446,4,42.536,4z M16,19h28v12H16V19z M16,33h28v12H16V33z M26,2h8v2h-8V2z   M17.464,6H24h12h6.536C43.344,6,44,6.656,44,7.464V17H16V7.464C16,6.656,16.656,6,17.464,6z M42.536,58H17.464  C16.656,58,16,57.344,16,56.536V47h28v9.536C44,57.344,43.344,58,42.536,58z"/>
</symbol>

<symbol id="sound" viewBox="0 0 52.026 52.026">
<path d="M28.404,3.413c-0.976-0.552-2.131-0.534-3.09,0.044c-0.046,0.027-0.09,0.059-0.13,0.093L11.634,15.013H1   c-0.553,0-1,0.447-1,1v19c0,0.266,0.105,0.52,0.293,0.707S0.734,36.013,1,36.013l10.61-0.005l13.543,12.44   c0.05,0.046,0.104,0.086,0.161,0.12c0.492,0.297,1.037,0.446,1.582,0.446c0.517-0.001,1.033-0.134,1.508-0.402   C29.403,48.048,30,47.018,30,45.857V6.169C30,5.008,29.403,3.978,28.404,3.413z M28,45.857c0,0.431-0.217,0.81-0.579,1.015   c-0.155,0.087-0.548,0.255-1,0.026L13,34.569v-4.556c0-0.553-0.447-1-1-1s-1,0.447-1,1v3.996l-9,0.004v-17h9v4c0,0.553,0.447,1,1,1   s1-0.447,1-1v-4.536l13.405-11.34c0.461-0.242,0.86-0.07,1.016,0.018C27.783,5.36,28,5.739,28,6.169V45.857z"/>
	<path d="M38.797,7.066c-0.523-0.177-1.091,0.103-1.269,0.626c-0.177,0.522,0.103,1.091,0.626,1.269   c7.101,2.411,11.872,9.063,11.872,16.553c0,7.483-4.762,14.136-11.849,16.554c-0.522,0.178-0.802,0.746-0.623,1.27   c0.142,0.415,0.53,0.677,0.946,0.677c0.107,0,0.216-0.017,0.323-0.054c7.896-2.693,13.202-10.106,13.202-18.446   C52.026,17.166,46.71,9.753,38.797,7.066z"/>
	<path d="M43.026,25.513c0-5.972-4.009-11.302-9.749-12.962c-0.533-0.151-1.084,0.152-1.238,0.684   c-0.153,0.53,0.152,1.085,0.684,1.238c4.889,1.413,8.304,5.953,8.304,11.04s-3.415,9.627-8.304,11.04   c-0.531,0.153-0.837,0.708-0.684,1.238c0.127,0.438,0.526,0.723,0.961,0.723c0.092,0,0.185-0.013,0.277-0.039   C39.018,36.815,43.026,31.485,43.026,25.513z"/>
</symbol>

<symbol id="time" viewBox="0 0 60 60">
<path d="M31.634,37.989c1.041-0.081,1.99-0.612,2.606-1.459l9.363-12.944c0.287-0.397,0.244-0.945-0.104-1.293   c-0.348-0.347-0.896-0.39-1.293-0.104L29.26,31.555c-0.844,0.614-1.375,1.563-1.456,2.604s0.296,2.06,1.033,2.797   C29.508,37.628,30.413,38,31.354,38C31.447,38,31.54,37.996,31.634,37.989z M29.798,34.315c0.035-0.457,0.269-0.874,0.637-1.142   l7.897-5.713l-5.711,7.895c-0.27,0.371-0.687,0.604-1.144,0.64c-0.455,0.03-0.902-0.128-1.227-0.453   C29.928,35.219,29.762,34.771,29.798,34.315z"/>
	<path d="M54.034,19.564c-0.01-0.021-0.01-0.043-0.021-0.064c-0.012-0.02-0.031-0.031-0.044-0.05   c-1.011-1.734-2.207-3.347-3.565-4.809l2.148-2.147l1.414,1.414l4.242-4.243l-4.242-4.242l-4.243,4.242l1.415,1.415l-2.148,2.147   c-1.462-1.358-3.074-2.555-4.809-3.566c-0.019-0.013-0.03-0.032-0.05-0.044c-0.021-0.012-0.043-0.011-0.064-0.022   c-3.093-1.782-6.568-2.969-10.273-3.404V5h1.5c1.379,0,2.5-1.121,2.5-2.5S36.672,0,35.293,0h-9c-1.379,0-2.5,1.121-2.5,2.5   s1.121,2.5,2.5,2.5h1.5v1.156c-1.08,0.115-2.158,0.291-3.224,0.535c-0.538,0.123-0.875,0.66-0.751,1.198   c0.123,0.538,0.66,0.876,1.198,0.751c0.92-0.211,1.849-0.37,2.78-0.477l1.073-0.083c0.328-0.025,0.63-0.043,0.924-0.057V10   c0,0.553,0.447,1,1,1s1-0.447,1-1V8.03c3.761,0.173,7.305,1.183,10.456,2.845l-0.986,1.707c-0.276,0.479-0.112,1.09,0.366,1.366   c0.157,0.091,0.329,0.134,0.499,0.134c0.346,0,0.682-0.179,0.867-0.5l0.983-1.703c3.129,1.985,5.787,4.643,7.772,7.772   l-1.703,0.983C49.57,20.91,49.406,21.521,49.683,22c0.186,0.321,0.521,0.5,0.867,0.5c0.17,0,0.342-0.043,0.499-0.134l1.707-0.986   c1.685,3.196,2.698,6.798,2.849,10.619H53.63c-0.553,0-1,0.447-1,1s0.447,1,1,1h1.975c-0.151,3.821-1.164,7.423-2.849,10.619   l-1.707-0.986c-0.478-0.276-1.09-0.114-1.366,0.366c-0.276,0.479-0.112,1.09,0.366,1.366l1.703,0.983   c-1.985,3.129-4.643,5.787-7.772,7.772l-0.983-1.703c-0.277-0.48-0.89-0.643-1.366-0.366c-0.479,0.276-0.643,0.888-0.366,1.366   l0.986,1.707c-3.151,1.662-6.695,2.672-10.456,2.845V56c0-0.553-0.447-1-1-1s-1,0.447-1,1v1.976   c-1.597-0.055-3.199-0.255-4.776-0.617c-0.538-0.129-1.075,0.213-1.198,0.751c-0.124,0.538,0.213,1.075,0.751,1.198   C26.568,59.768,28.607,60,30.63,60c0.049,0,0.096-0.003,0.145-0.004c0.007,0,0.012,0.004,0.018,0.004   c0.008,0,0.015-0.005,0.023-0.005c4.807-0.033,9.317-1.331,13.219-3.573c0.031-0.014,0.064-0.021,0.094-0.039   c0.02-0.012,0.031-0.031,0.05-0.044c4.039-2.354,7.414-5.725,9.773-9.761c0.019-0.027,0.043-0.048,0.06-0.078   c0.012-0.021,0.011-0.043,0.021-0.064C56.317,42.476,57.63,37.89,57.63,33S56.317,23.524,54.034,19.564z M53.965,8.251l1.414,1.414   l-1.414,1.415L52.55,9.665L53.965,8.251z M29.793,6.021V3h-3.5c-0.275,0-0.5-0.225-0.5-0.5s0.225-0.5,0.5-0.5h9   c0.275,0,0.5,0.225,0.5,0.5S35.568,3,35.293,3h-3.5v3.021C31.445,6.007,31.113,6,30.793,6c-0.028,0-0.06,0.002-0.088,0.002   C30.68,6.002,30.655,6,30.63,6c-0.164,0-0.328,0.011-0.492,0.014C30.022,6.017,29.913,6.016,29.793,6.021z"/>
	<path d="M21.793,14h-5c-0.553,0-1,0.447-1,1s0.447,1,1,1h5c0.553,0,1-0.447,1-1S22.346,14,21.793,14z"/>
	<path d="M21.793,21h-10c-0.553,0-1,0.447-1,1s0.447,1,1,1h10c0.553,0,1-0.447,1-1S22.346,21,21.793,21z"/>
	<path d="M21.793,28h-15c-0.553,0-1,0.447-1,1s0.447,1,1,1h15c0.553,0,1-0.447,1-1S22.346,28,21.793,28z"/>
	<path d="M21.793,35h-19c-0.553,0-1,0.447-1,1s0.447,1,1,1h19c0.553,0,1-0.447,1-1S22.346,35,21.793,35z"/>
	<path d="M21.793,42h-13c-0.553,0-1,0.447-1,1s0.447,1,1,1h13c0.553,0,1-0.447,1-1S22.346,42,21.793,42z"/>
	<path d="M21.793,49h-7c-0.553,0-1,0.447-1,1s0.447,1,1,1h7c0.553,0,1-0.447,1-1S22.346,49,21.793,49z"/>
</symbol>

<symbol id="vk" viewBox="0 0 24 24">
<path d="M12 0C5.37423 0 0 5.37423 0 12C0 18.6258 5.37423 24 12 24C18.6258 24 24 18.6258 24 12C24 5.37423 18.6258 0 12 0ZM18.0859 13.3006C18.6503 13.8405 19.2393 14.3558 19.7301 14.9693C19.9509 15.2393 20.1718 15.5092 20.319 15.8282C20.5399 16.2699 20.3436 16.7607 19.9509 16.7853H17.4969C16.8589 16.8344 16.3681 16.589 15.9264 16.1472C15.5828 15.8037 15.2638 15.4356 14.9448 15.0675C14.8221 14.9202 14.6748 14.773 14.5031 14.6748C14.1595 14.454 13.865 14.5276 13.6933 14.8712C13.4969 15.2393 13.4479 15.6319 13.4233 16.0245C13.3988 16.6135 13.227 16.7607 12.638 16.7853C11.3865 16.8344 10.2086 16.6626 9.12883 16.0245C8.17178 15.4601 7.41104 14.6994 6.77301 13.816C5.49693 12.0982 4.53988 10.2086 3.65644 8.26994C3.46012 7.82822 3.60736 7.60736 4.09816 7.58282C4.90798 7.55828 5.69325 7.55828 6.50307 7.58282C6.82209 7.58282 7.04294 7.77914 7.16564 8.07362C7.60736 9.12883 8.1227 10.1595 8.78528 11.092C8.95705 11.3374 9.15337 11.5828 9.39877 11.7791C9.69325 11.9755 9.88957 11.9018 10.0368 11.5828C10.1104 11.3865 10.1595 11.1656 10.184 10.9448C10.2577 10.2086 10.2577 9.47239 10.135 8.7362C10.0613 8.2454 9.81595 7.95092 9.34969 7.85276C9.10429 7.80368 9.15337 7.73006 9.25153 7.58282C9.44785 7.36196 9.64417 7.21472 10.0123 7.21472H12.7853C13.227 7.31288 13.3252 7.48466 13.3742 7.92638V11.0184C13.3742 11.1902 13.4479 11.7055 13.7669 11.8037C14.0123 11.8773 14.184 11.681 14.3313 11.5337C14.9939 10.8221 15.4601 9.98773 15.9018 9.12883C16.0982 8.7362 16.2454 8.34356 16.4172 7.95092C16.5399 7.65644 16.7117 7.5092 17.0552 7.5092H19.7301C19.8037 7.5092 19.8773 7.5092 19.9755 7.53374C20.4172 7.60736 20.5399 7.80368 20.4172 8.2454C20.1963 8.93251 19.7791 9.52147 19.362 10.0859C18.9202 10.6994 18.4294 11.2883 17.9877 11.9264C17.546 12.5153 17.5706 12.8098 18.0859 13.3006Z"/>
</symbol>

<symbol id="fb" viewBox="0 0 24 24">
<path d="M24 12C24 5.37188 18.6281 0 12 0C5.37188 0 0 5.37188 0 12C0 18.6281 5.37188 24 12 24C12.0703 24 12.1406 24 12.2109 23.9953V14.6578H9.63281V11.6531H12.2109V9.44062C12.2109 6.87656 13.7766 5.47969 16.0641 5.47969C17.1609 5.47969 18.1031 5.55938 18.375 5.59688V8.27813H16.8C15.5578 8.27813 15.3141 8.86875 15.3141 9.73594V11.6484H18.2906L17.9016 14.6531H15.3141V23.5359C20.3297 22.0969 24 17.4797 24 12Z"/>
</symbol>

<symbol id="inst" viewBox="0 0 24 24">
<path d="M14.2969 12C14.2969 13.2703 13.2703 14.2969 12 14.2969C10.7297 14.2969 9.70312 13.2703 9.70312 12C9.70312 10.7297 10.7297 9.70312 12 9.70312C13.2703 9.70312 14.2969 10.7297 14.2969 12Z"/>
<path d="M17.3719 7.93593C17.2594 7.63593 17.0859 7.36405 16.8563 7.14374C16.6359 6.91405 16.3641 6.74061 16.0641 6.62811C15.8203 6.53436 15.4547 6.42186 14.7844 6.38905C14.0578 6.35624 13.8375 6.34686 12 6.34686C10.1578 6.34686 9.94219 6.35155 9.21563 6.38905C8.54531 6.42186 8.17969 6.53436 7.93594 6.62811C7.63594 6.74061 7.36406 6.91405 7.14375 7.14374C6.91406 7.36405 6.74062 7.63593 6.62812 7.93593C6.53437 8.17968 6.42187 8.5453 6.38906 9.21561C6.35625 9.94218 6.34687 10.1578 6.34687 12C6.34687 13.8375 6.35625 14.0578 6.38906 14.7844C6.42187 15.4547 6.52969 15.8203 6.62812 16.0641C6.74062 16.364 6.91406 16.6359 7.14375 16.8562C7.36406 17.0859 7.63594 17.2594 7.93594 17.3719C8.17969 17.4656 8.54531 17.5781 9.21563 17.6109C9.94219 17.6437 10.1578 17.6531 12 17.6531C13.8422 17.6531 14.0578 17.6484 14.7844 17.6109C15.4547 17.5781 15.8203 17.4703 16.0641 17.3719C16.6641 17.1422 17.1422 16.6641 17.3719 16.0641C17.4656 15.8203 17.5781 15.4547 17.6109 14.7844C17.6438 14.0578 17.6531 13.8375 17.6531 12C17.6531 10.1578 17.6484 9.94218 17.6109 9.21561C17.5781 8.5453 17.4656 8.17968 17.3719 7.93593ZM12 15.5391C10.0453 15.5391 8.46094 13.9547 8.46094 12C8.46094 10.0453 10.0453 8.46093 12 8.46093C13.9547 8.46093 15.5391 10.0453 15.5391 12C15.5391 13.9547 13.9547 15.5391 12 15.5391ZM15.6797 9.14999C15.225 9.14999 14.8547 8.77968 14.8547 8.32499C14.8547 7.8703 15.225 7.49999 15.6797 7.49999C16.1344 7.49999 16.5047 7.8703 16.5047 8.32499C16.5047 8.77968 16.1344 9.14999 15.6797 9.14999Z"/>
<path d="M12 0C5.37188 0 0 5.37188 0 12C0 18.6281 5.37188 24 12 24C18.6281 24 24 18.6281 24 12C24 5.37188 18.6281 0 12 0ZM18.8484 14.8406C18.8156 15.5719 18.6984 16.0734 18.5297 16.5141C18.1734 17.4375 17.4422 18.1734 16.5141 18.5297C16.0781 18.6984 15.5766 18.8156 14.8406 18.8484C14.1047 18.8813 13.8703 18.8906 12 18.8906C10.1297 18.8906 9.89531 18.8813 9.15937 18.8484C8.42812 18.8156 7.92656 18.6984 7.48594 18.5297C7.02656 18.3562 6.60938 18.0844 6.26719 17.7328C5.91562 17.3906 5.64375 16.9734 5.47031 16.5141C5.30156 16.0781 5.18438 15.5766 5.15156 14.8406C5.11875 14.1047 5.10938 13.8703 5.10938 12C5.10938 10.1297 5.11875 9.89531 5.15156 9.15937C5.18438 8.42812 5.30156 7.92656 5.47031 7.48594C5.64375 7.02656 5.91562 6.60938 6.26719 6.26719C6.60938 5.91562 7.02656 5.64375 7.48594 5.47031C7.92656 5.30156 8.42344 5.18438 9.15937 5.15156C9.89531 5.11875 10.1297 5.10938 12 5.10938C13.8703 5.10938 14.1047 5.11875 14.8406 5.15156C15.5719 5.18438 16.0734 5.30156 16.5141 5.47031C16.9734 5.64375 17.3906 5.91562 17.7328 6.26719C18.0844 6.60938 18.3562 7.02656 18.5297 7.48594C18.6984 7.92656 18.8156 8.42344 18.8484 9.15937C18.8813 9.89531 18.8906 10.1297 18.8906 12C18.8906 13.8703 18.8813 14.1047 18.8484 14.8406Z"/>
</symbol>

<symbol id="telegram" viewBox="0 0 24 24">
<path d="M12 24C18.6281 24 24 18.6281 24 12C24 5.37188 18.6281 0 12 0C5.37188 0 0 5.37188 0 12C0 18.6281 5.37188 24 12 24ZM5.48906 11.7422L17.0625 7.27969C17.6016 7.0875 18.0703 7.41094 17.8922 8.22187L15.9234 17.5031C15.7781 18.1594 15.3844 18.3234 14.8406 18.0094L11.8406 15.7969L10.3922 17.1891C10.2328 17.3484 10.0969 17.4844 9.7875 17.4844L9.99844 14.4328L15.5625 9.4125C15.8062 9.20156 15.5063 9.07969 15.1875 9.29062L8.31562 13.6172L5.35312 12.6937C4.71094 12.4875 4.69688 12.0516 5.48906 11.7422Z"/>
</symbol>



</svg>

